<svg xmlns="http://www.w3.org/2000/svg" xmlns:xlink="http://www.w3.org/1999/xlink" width="230.893" height="52" viewBox="0 0 230.893 52">
  <defs>
    <linearGradient id="linear-gradient" y1="0.5" x2="1" y2="0.5" gradientUnits="objectBoundingBox">
      <stop offset="0" stop-color="#0d2049"/>
      <stop offset="0.606" stop-color="#0d234f"/>
      <stop offset="0.731" stop-color="#09275c"/>
      <stop offset="0.963" stop-color="#01327f"/>
      <stop offset="1" stop-color="#003586"/>
    </linearGradient>
    <linearGradient id="linear-gradient-2" y1="0.5" x2="1" y2="0.5" gradientUnits="objectBoundingBox">
      <stop offset="0.128" stop-color="#0d2049"/>
      <stop offset="0.527" stop-color="#003586"/>
      <stop offset="0.857" stop-color="#003584"/>
    </linearGradient>
  </defs>
  <g id="Group_215" data-name="Group 215" transform="translate(-58.751 -83.922)">
    <g id="Group_3" data-name="Group 3" transform="translate(142.099 93.628)">
      <g id="Group_1" data-name="Group 1" transform="translate(0.426 0)">
        <path id="Path_1" data-name="Path 1" d="M235.4,104.131a2.051,2.051,0,0,1,.7-1.6,2.975,2.975,0,0,1,3.65,0,2.184,2.184,0,0,1,0,3.21,2.975,2.975,0,0,1-3.65,0A2.05,2.05,0,0,1,235.4,104.131Zm4.839,18.412h-4.569V107.917h4.569Z" transform="translate(-235.405 -101.901)" fill="#ed4d16"/>
        <path id="Path_2" data-name="Path 2" d="M266.309,107.588H260.4v16.019h-4.745V107.588h-5.8v-3.663h16.452Z" transform="translate(-243.003 -102.965)" fill="#003686"/>
        <path id="Path_3" data-name="Path 3" d="M300.975,115.254h-7.462v4.7h8.814v3.65H288.768V103.925h13.586v3.663h-8.841v4.15h7.462Z" transform="translate(-263.462 -102.965)" fill="#003686"/>
        <path id="Path_4" data-name="Path 4" d="M336.746,116.628a7.192,7.192,0,0,1-1.108,3.63,6.7,6.7,0,0,1-2.846,2.439,9.679,9.679,0,0,1-4.184.865,7.731,7.731,0,0,1-6.11-2.528q-2.229-2.528-2.23-7.138v-.974a11.921,11.921,0,0,1,1.007-5.062,7.633,7.633,0,0,1,2.9-3.352,8.089,8.089,0,0,1,4.38-1.183,8.485,8.485,0,0,1,5.758,1.886,7.449,7.449,0,0,1,2.474,5.2h-4.731a3.523,3.523,0,0,0-.906-2.582,3.724,3.724,0,0,0-2.595-.784,2.834,2.834,0,0,0-2.6,1.325,8.511,8.511,0,0,0-.865,4.231v1.392a9.417,9.417,0,0,0,.791,4.5,2.893,2.893,0,0,0,2.723,1.352,3.642,3.642,0,0,0,2.5-.771,3.27,3.27,0,0,0,.919-2.447Z" transform="translate(-280.023 -102.65)" fill="#003686"/>
        <path id="Path_5" data-name="Path 5" d="M376.2,123.608h-4.718v-8.219h-6.989v8.219h-4.745V103.925h4.745v7.813h6.989v-7.813H376.2Z" transform="translate(-300.781 -102.965)" fill="#003686"/>
        <path id="Path_6" data-name="Path 6" d="M410.23,118.076a1.948,1.948,0,0,0-.737-1.622,9.134,9.134,0,0,0-2.589-1.2,24.826,24.826,0,0,1-3.027-1.2q-3.826-1.879-3.826-5.164A4.633,4.633,0,0,1,401,106a6.165,6.165,0,0,1,2.7-1.946,10.493,10.493,0,0,1,3.92-.7,9.179,9.179,0,0,1,3.805.757,6.022,6.022,0,0,1,2.616,2.157,5.626,5.626,0,0,1,.933,3.2h-4.732a2.379,2.379,0,0,0-.736-1.866,2.872,2.872,0,0,0-1.994-.662,3.236,3.236,0,0,0-2.007.561,1.651,1.651,0,0,0,.074,2.8,10.226,10.226,0,0,0,2.852,1.27,17.549,17.549,0,0,1,3.352,1.413,5.635,5.635,0,0,1,3.191,5.07,4.8,4.8,0,0,1-1.947,4.055,8.656,8.656,0,0,1-5.34,1.474,10.6,10.6,0,0,1-4.333-.858,6.535,6.535,0,0,1-2.92-2.353,6.126,6.126,0,0,1-.98-3.44h4.758a3.016,3.016,0,0,0,.818,2.332,3.866,3.866,0,0,0,2.656.75,3.057,3.057,0,0,0,1.859-.507A1.675,1.675,0,0,0,410.23,118.076Z" transform="translate(-321.659 -102.665)" fill="#003686"/>
        <path id="Path_7" data-name="Path 7" d="M453.364,113.872a11.607,11.607,0,0,1-1.068,5.1,7.891,7.891,0,0,1-3.035,3.413,8.451,8.451,0,0,1-4.481,1.2,8.564,8.564,0,0,1-4.461-1.156,7.877,7.877,0,0,1-3.035-3.3,11.277,11.277,0,0,1-1.143-4.934v-1.108a11.658,11.658,0,0,1,1.062-5.1,7.87,7.87,0,0,1,3.041-3.413,9,9,0,0,1,8.969-.014,8.022,8.022,0,0,1,3.048,3.387,11.321,11.321,0,0,1,1.1,5.035Zm-4.826-.825a8.275,8.275,0,0,0-.98-4.454,3.145,3.145,0,0,0-2.806-1.521q-3.569,0-3.771,5.353l-.013,1.447a8.507,8.507,0,0,0,.96,4.447,3.138,3.138,0,0,0,2.852,1.555,3.1,3.1,0,0,0,2.771-1.528,8.284,8.284,0,0,0,.987-4.393Z" transform="translate(-340.948 -102.665)" fill="#003686"/>
        <path id="Path_8" data-name="Path 8" d="M482.364,119.958h8.26v3.65h-13V103.925h4.745Z" transform="translate(-362.755 -102.965)" fill="#003686"/>
        <path id="Path_9" data-name="Path 9" d="M525.7,123.608h-4.718l-6.975-12.247v12.247h-4.745V103.925h4.745l6.962,12.247V103.925H525.7Z" transform="translate(-379.392 -102.965)" fill="#003686"/>
      </g>
      <g id="Group_2" data-name="Group 2" transform="translate(0 25.87)">
        <path id="Path_10" data-name="Path 10" d="M235.365,163.149h-.858v-6.507h.858Z" transform="translate(-234.507 -156.552)" fill="#4b4b4b"/>
        <path id="Path_11" data-name="Path 11" d="M246.557,163.149h-.863l-3.276-5.015v5.015h-.863v-6.507h.863l3.285,5.037v-5.037h.854Z" transform="translate(-238.213 -156.552)" fill="#4b4b4b"/>
        <path id="Path_12" data-name="Path 12" d="M261.148,157.343h-2.092v5.806H258.2v-5.806h-2.087v-.7h5.032Z" transform="translate(-245.868 -156.552)" fill="#4b4b4b"/>
        <path id="Path_13" data-name="Path 13" d="M274.373,160.142h-2.821v2.306h3.276v.7h-4.134v-6.507h4.09v.7h-3.232v2.1h2.821Z" transform="translate(-253.533 -156.552)" fill="#4b4b4b"/>
        <path id="Path_14" data-name="Path 14" d="M288.167,162.2a1.978,1.978,0,0,1-.923.708,3.726,3.726,0,0,1-1.379.235,2.676,2.676,0,0,1-1.413-.373,2.492,2.492,0,0,1-.955-1.061,3.68,3.68,0,0,1-.346-1.6v-.568a3.421,3.421,0,0,1,.686-2.28,2.391,2.391,0,0,1,1.929-.809,2.471,2.471,0,0,1,1.64.521,2.265,2.265,0,0,1,.76,1.477h-.858a1.418,1.418,0,0,0-1.537-1.3,1.519,1.519,0,0,0-1.307.606,2.959,2.959,0,0,0-.449,1.756v.533a2.773,2.773,0,0,0,.5,1.742,1.622,1.622,0,0,0,1.354.646,3,3,0,0,0,.845-.107,1.306,1.306,0,0,0,.6-.361v-1.458h-1.507v-.7h2.36Z" transform="translate(-260.083 -156.453)" fill="#4b4b4b"/>
        <path id="Path_15" data-name="Path 15" d="M301.056,160.517h-1.529v2.632h-.863v-6.507h2.154a2.549,2.549,0,0,1,1.692.5,1.8,1.8,0,0,1,.592,1.457,1.753,1.753,0,0,1-.328,1.059,1.961,1.961,0,0,1-.914.675l1.528,2.762v.054h-.92Zm-1.529-.7h1.318a1.488,1.488,0,0,0,1.017-.331,1.122,1.122,0,0,0,.378-.887,1.179,1.179,0,0,0-.36-.927,1.527,1.527,0,0,0-1.039-.327h-1.314Z" transform="translate(-268.239 -156.552)" fill="#4b4b4b"/>
        <path id="Path_16" data-name="Path 16" d="M315.383,161.447h-2.727l-.612,1.7h-.885l2.485-6.507h.751l2.489,6.507H316Zm-2.467-.7h2.213L314.02,157.7Z" transform="translate(-274.809 -156.552)" fill="#4b4b4b"/>
        <path id="Path_17" data-name="Path 17" d="M329.7,157.343H327.6v5.806h-.854v-5.806h-2.087v-.7H329.7Z" transform="translate(-281.909 -156.552)" fill="#4b4b4b"/>
        <path id="Path_18" data-name="Path 18" d="M340.232,163.149h-.858v-6.507h.858Z" transform="translate(-289.643 -156.552)" fill="#4b4b4b"/>
        <path id="Path_19" data-name="Path 19" d="M351.424,163.149h-.863l-3.276-5.015v5.015h-.863v-6.507h.863l3.284,5.037v-5.037h.854Z" transform="translate(-293.349 -156.552)" fill="#4b4b4b"/>
        <path id="Path_20" data-name="Path 20" d="M366.684,162.2a1.978,1.978,0,0,1-.923.708,3.723,3.723,0,0,1-1.379.235,2.675,2.675,0,0,1-1.412-.373,2.486,2.486,0,0,1-.955-1.061,3.672,3.672,0,0,1-.347-1.6v-.568a3.421,3.421,0,0,1,.687-2.28,2.391,2.391,0,0,1,1.928-.809,2.471,2.471,0,0,1,1.64.521,2.269,2.269,0,0,1,.76,1.477h-.858a1.419,1.419,0,0,0-1.537-1.3,1.519,1.519,0,0,0-1.307.606,2.959,2.959,0,0,0-.449,1.756v.533a2.773,2.773,0,0,0,.5,1.742,1.623,1.623,0,0,0,1.354.646,3,3,0,0,0,.845-.107,1.3,1.3,0,0,0,.6-.361v-1.458h-1.507v-.7h2.36Z" transform="translate(-301.366 -156.453)" fill="#4b4b4b"/>
        <path id="Path_21" data-name="Path 21" d="M384.89,163.149h-.858v-6.507h.858Z" transform="translate(-313.124 -156.552)" fill="#4b4b4b"/>
        <path id="Path_22" data-name="Path 22" d="M394.981,157.343H392.89v5.806h-.854v-5.806h-2.087v-.7h5.032Z" transform="translate(-316.235 -156.552)" fill="#4b4b4b"/>
        <path id="Path_23" data-name="Path 23" d="M414.384,157.343h-2.092v5.806h-.854v-5.806h-2.087v-.7h5.033Z" transform="translate(-326.436 -156.552)" fill="#4b4b4b"/>
        <path id="Path_24" data-name="Path 24" d="M428.419,160.007a4.021,4.021,0,0,1-.322,1.669,2.436,2.436,0,0,1-.911,1.088,2.516,2.516,0,0,1-3.663-1.079,3.867,3.867,0,0,1-.338-1.62V159.6a3.984,3.984,0,0,1,.326-1.658,2.413,2.413,0,0,1,2.289-1.484,2.526,2.526,0,0,1,1.379.377,2.435,2.435,0,0,1,.919,1.1,4.04,4.04,0,0,1,.322,1.669Zm-.854-.421a2.919,2.919,0,0,0-.465-1.776,1.533,1.533,0,0,0-1.3-.619,1.517,1.517,0,0,0-1.28.619,2.854,2.854,0,0,0-.481,1.719v.478a2.923,2.923,0,0,0,.471,1.763,1.652,1.652,0,0,0,2.586.036,2.9,2.9,0,0,0,.469-1.736Z" transform="translate(-333.709 -156.453)" fill="#4b4b4b"/>
        <path id="Path_25" data-name="Path 25" d="M445.575,163.149v-6.507H447.7a2.467,2.467,0,0,1,1.593.438,1.579,1.579,0,0,1,.534,1.3,1.32,1.32,0,0,1-.259.807,1.677,1.677,0,0,1-.706.543,1.509,1.509,0,0,1,.834.561,1.61,1.61,0,0,1,.306.985,1.74,1.74,0,0,1-.568,1.377,2.347,2.347,0,0,1-1.6.5Zm.858-3.732h1.3a1.36,1.36,0,0,0,.9-.282.947.947,0,0,0,.337-.766.932.932,0,0,0-.313-.782,1.539,1.539,0,0,0-.952-.244h-1.27Zm0,.689v2.342h1.418a1.367,1.367,0,0,0,.945-.311,1.092,1.092,0,0,0,.346-.856q0-1.175-1.279-1.175Z" transform="translate(-345.481 -156.552)" fill="#4b4b4b"/>
        <path id="Path_26" data-name="Path 26" d="M463.96,156.642v4.425a2.078,2.078,0,0,1-.579,1.506,2.33,2.33,0,0,1-1.558.657l-.228.009a2.434,2.434,0,0,1-1.7-.577,2.06,2.06,0,0,1-.644-1.587v-4.434h.849v4.407a1.357,1.357,0,0,0,1.5,1.488,1.5,1.5,0,0,0,1.115-.389,1.487,1.487,0,0,0,.387-1.095v-4.412Z" transform="translate(-352.671 -156.552)" fill="#4b4b4b"/>
        <path id="Path_27" data-name="Path 27" d="M475.444,160.149a4.028,4.028,0,0,1-1.606-.78,1.489,1.489,0,0,1-.5-1.142,1.573,1.573,0,0,1,.615-1.271,2.442,2.442,0,0,1,1.6-.5,2.662,2.662,0,0,1,1.2.259,1.96,1.96,0,0,1,.814.715,1.827,1.827,0,0,1,.288,1h-.863a1.19,1.19,0,0,0-.375-.931,1.527,1.527,0,0,0-1.059-.339,1.563,1.563,0,0,0-.99.28.933.933,0,0,0-.356.777.838.838,0,0,0,.338.674,3.323,3.323,0,0,0,1.148.5,5.336,5.336,0,0,1,1.27.5,1.925,1.925,0,0,1,.679.642,1.632,1.632,0,0,1,.221.863,1.521,1.521,0,0,1-.617,1.267,2.63,2.63,0,0,1-1.649.476,3.06,3.06,0,0,1-1.251-.257,2.106,2.106,0,0,1-.9-.7,1.719,1.719,0,0,1-.315-1.015h.863a1.119,1.119,0,0,0,.436.932,1.832,1.832,0,0,0,1.164.342,1.687,1.687,0,0,0,1.041-.277.9.9,0,0,0,.362-.755.885.885,0,0,0-.335-.74A3.888,3.888,0,0,0,475.444,160.149Z" transform="translate(-359.969 -156.453)" fill="#4b4b4b"/>
        <path id="Path_28" data-name="Path 28" d="M488.34,163.149h-.858v-6.507h.858Z" transform="translate(-367.515 -156.552)" fill="#4b4b4b"/>
        <path id="Path_29" data-name="Path 29" d="M499.532,163.149h-.863l-3.276-5.015v5.015h-.863v-6.507h.863l3.285,5.037v-5.037h.854Z" transform="translate(-371.221 -156.552)" fill="#4b4b4b"/>
        <path id="Path_30" data-name="Path 30" d="M513.9,160.142h-2.82v2.306h3.276v.7h-4.134v-6.507h4.09v.7h-3.231v2.1h2.82Z" transform="translate(-379.471 -156.552)" fill="#4b4b4b"/>
        <path id="Path_31" data-name="Path 31" d="M524.6,160.149a4.03,4.03,0,0,1-1.607-.78,1.491,1.491,0,0,1-.5-1.142,1.573,1.573,0,0,1,.615-1.271,2.442,2.442,0,0,1,1.6-.5,2.662,2.662,0,0,1,1.2.259,1.964,1.964,0,0,1,.814.715,1.83,1.83,0,0,1,.288,1h-.863a1.192,1.192,0,0,0-.375-.931,1.529,1.529,0,0,0-1.06-.339,1.564,1.564,0,0,0-.99.28.932.932,0,0,0-.356.777.839.839,0,0,0,.338.674,3.326,3.326,0,0,0,1.149.5,5.335,5.335,0,0,1,1.269.5,1.931,1.931,0,0,1,.68.642,1.638,1.638,0,0,1,.221.863,1.521,1.521,0,0,1-.616,1.267,2.633,2.633,0,0,1-1.649.476,3.064,3.064,0,0,1-1.252-.257,2.1,2.1,0,0,1-.9-.7,1.715,1.715,0,0,1-.315-1.015h.863a1.121,1.121,0,0,0,.436.932,1.833,1.833,0,0,0,1.164.342,1.686,1.686,0,0,0,1.041-.277.9.9,0,0,0,.362-.755.884.884,0,0,0-.335-.74A3.887,3.887,0,0,0,524.6,160.149Z" transform="translate(-385.813 -156.453)" fill="#4b4b4b"/>
        <path id="Path_32" data-name="Path 32" d="M537.98,160.149a4.032,4.032,0,0,1-1.606-.78,1.491,1.491,0,0,1-.5-1.142,1.573,1.573,0,0,1,.615-1.271,2.442,2.442,0,0,1,1.6-.5,2.663,2.663,0,0,1,1.2.259,1.96,1.96,0,0,1,.813.715,1.826,1.826,0,0,1,.288,1h-.863a1.192,1.192,0,0,0-.375-.931,1.529,1.529,0,0,0-1.06-.339,1.565,1.565,0,0,0-.99.28.933.933,0,0,0-.356.777.839.839,0,0,0,.338.674,3.322,3.322,0,0,0,1.149.5,5.334,5.334,0,0,1,1.269.5,1.925,1.925,0,0,1,.679.642,1.633,1.633,0,0,1,.221.863,1.52,1.52,0,0,1-.617,1.267,2.629,2.629,0,0,1-1.649.476,3.063,3.063,0,0,1-1.251-.257,2.1,2.1,0,0,1-.9-.7,1.714,1.714,0,0,1-.315-1.015h.863a1.121,1.121,0,0,0,.436.932,1.833,1.833,0,0,0,1.164.342,1.687,1.687,0,0,0,1.042-.277.9.9,0,0,0,.362-.755.884.884,0,0,0-.335-.74A3.884,3.884,0,0,0,537.98,160.149Z" transform="translate(-392.848 -156.453)" fill="#4b4b4b"/>
      </g>
    </g>
    <g id="Group_6" data-name="Group 6" transform="translate(58.751 83.922)">
      <path id="Path_33" data-name="Path 33" d="M161.472,102.933a6.778,6.778,0,0,0-3.187-4.137L145.5,91.449h0L133.98,84.828a6.831,6.831,0,0,0-9.317,2.516l-8.91,15.367,3.7,2.126,8.91-15.367a2.558,2.558,0,0,1,3.489-.942l11.474,6.638.019-.033,12.811,7.363a2.556,2.556,0,0,1,.942,3.489l-13.968,24.3a2.556,2.556,0,0,1-3.489.942l-12.865-7.394-2.091,3.721,12.829,7.373a6.823,6.823,0,0,0,9.317-2.516l13.968-24.3A6.78,6.78,0,0,0,161.472,102.933Z" transform="translate(-88.722 -83.922)" fill="#003686"/>
      <path id="Path_34" data-name="Path 34" d="M161.472,102.933a6.778,6.778,0,0,0-3.187-4.137L145.5,91.449h0L133.98,84.828a6.831,6.831,0,0,0-9.317,2.516l-8.91,15.367,3.7,2.126,8.91-15.367a2.558,2.558,0,0,1,3.489-.942l11.474,6.638.019-.033,12.811,7.363a2.556,2.556,0,0,1,.942,3.489l-13.968,24.3a2.556,2.556,0,0,1-3.489.942l-10.025-5.9-2.09,3.721,9.988,5.883a6.823,6.823,0,0,0,9.317-2.516l13.968-24.3A6.78,6.78,0,0,0,161.472,102.933Z" transform="translate(-88.722 -83.922)" fill="url(#linear-gradient)"/>
      <g id="Group_4" data-name="Group 4" transform="translate(18.453 17.956)">
        <path id="Path_35" data-name="Path 35" d="M105.229,136.942a7.586,7.586,0,1,1,1.988-.265h0A7.624,7.624,0,0,1,105.229,136.942Zm.012-11.361a3.782,3.782,0,1,0,.987,7.433h0a3.782,3.782,0,0,0-.987-7.433Z" transform="translate(-97.663 -121.787)" fill="#ed4d16"/>
      </g>
      <path id="Path_36" data-name="Path 36" d="M101.606,113.73l-1.422,2.663L92.1,130.465a2.559,2.559,0,0,1-3.489.942l-7.772-4.467h0L64.3,117.44a2.556,2.556,0,0,1-.942-3.489l13.968-24.3a2.559,2.559,0,0,1,3.489-.942L90.6,94.5l2.145-3.69L82.946,85a6.831,6.831,0,0,0-9.316,2.516l-13.968,24.3a6.823,6.823,0,0,0,2.516,9.316l16.512,9.49h0l7.792,4.479a6.831,6.831,0,0,0,9.316-2.516l9.53-16.723Z" transform="translate(-58.751 -84.014)" fill="#003686"/>
      <path id="Path_37" data-name="Path 37" d="M101.606,113.73l-1.422,2.663L92.1,130.465a2.559,2.559,0,0,1-3.489.942l-7.772-4.467h0L64.3,117.44a2.556,2.556,0,0,1-.942-3.489l13.968-24.3a2.559,2.559,0,0,1,3.489-.942L90.6,94.5l2.145-3.69L82.946,85a6.831,6.831,0,0,0-9.316,2.516l-13.968,24.3a6.823,6.823,0,0,0,2.516,9.316l16.512,9.49h0l7.792,4.479a6.831,6.831,0,0,0,9.316-2.516l9.53-16.723Z" transform="translate(-58.751 -84.014)" fill="url(#linear-gradient-2)"/>
      <g id="Group_5" data-name="Group 5" transform="translate(39.949 17.956)">
        <path id="Path_38" data-name="Path 38" d="M150.554,136.942a7.6,7.6,0,1,1,1.988-.265h0A7.625,7.625,0,0,1,150.554,136.942Zm.012-11.361a3.782,3.782,0,1,0,.987,7.433h0a3.782,3.782,0,0,0-.987-7.433Z" transform="translate(-142.991 -121.787)" fill="#ed4d16"/>
      </g>
    </g>
  </g>
</svg>
